<svg width="85" height="19" viewBox="0 0 85 19" fill="none" xmlns="http://www.w3.org/2000/svg">
<path d="M20.9687 0.0257597H24.3175V18.0578H20.9945V6.3885L13.9362 18.0578H10.6647L3.32305 6.23394V18.0578H0V0.0257597H3.37457L12.2876 14.3741L20.9687 0.0257597Z" fill="#181D27"/>
<path d="M40.2747 0.0257597H44.2932L57.1733 18.0578H53.1032L50.5529 14.4772H33.9892L31.439 18.0578H27.4204L40.2747 0.0257597ZM36.3591 11.1541H48.1573L42.2582 2.88513L36.3591 11.1541Z" fill="#181D27"/>
<path d="M73.0988 10.5359L73.0731 7.23858H85V8.88723C85 13.2664 81.2648 16.6668 75.2627 17.7487C74.1293 17.9548 72.9443 18.0578 71.7593 18.0578C67.3286 18.0578 62.7691 16.6925 60.0385 14.3999C58.2095 12.88 57.2564 11.0253 57.2564 9.01603C57.2564 3.96705 63.6707 0 71.8624 0C76.087 0 80.0798 1.08192 82.8104 2.98817L80.9041 5.71874C78.7145 4.19889 75.4173 3.32305 71.8624 3.32305C66.53 3.32305 60.5795 5.66722 60.5795 9.01603C60.5795 10.0207 61.1204 10.9738 62.1766 11.8496C64.9071 14.1423 70.291 15.2757 74.696 14.4772C78.0705 13.8589 80.4405 12.4164 81.3163 10.5359H73.0988Z" fill="#181D27"/>
</svg>
