<svg preserveAspectRatio="none" width="100%" height="100%" overflow="visible" style="display: block;" viewBox="0 0 42.3703 23.8333" fill="none" xmlns="http://www.w3.org/2000/svg">
<path id="Primary" d="M39.8259 6.30192C37.3917 4.90837 34.2797 5.73526 32.8747 8.14961L30.8801 11.5757L32.0197 6.06179C32.584 3.33096 30.8102 0.663425 28.0569 0.103795C25.3036 -0.455835 22.614 1.30343 22.0498 4.03427L21.1847 8.21793L20.3196 4.03427C19.7554 1.30343 17.0658 -0.455835 14.3125 0.103795C11.5592 0.663425 9.78541 3.33096 10.3497 6.06179L11.4893 11.5757L9.49468 8.14961C8.08965 5.73526 4.97772 4.90837 2.54348 6.30192C0.111266 7.69547 -0.722433 10.782 0.682598 13.1963L6.87405 23.8333H35.4964L41.6878 13.1963C43.0928 10.782 42.2591 7.69547 39.8249 6.30192H39.8259Z" fill="var(--fill-0, #EE5621)"/>
</svg>
