<svg preserveAspectRatio="none" width="100%" height="100%" overflow="visible" style="display: block;" viewBox="0 0 50.8444 49.5733" fill="none" xmlns="http://www.w3.org/2000/svg">
<path id="Primary" d="M50.5501 18.6099C49.4577 15.2092 45.6964 13.5094 42.4618 14.9534L30.0733 20.4843L31.4698 6.64771C31.8287 3.09079 29.0673 0 25.5311 0C21.9948 0 19.2334 3.09079 19.5923 6.64771L20.9669 20.2691L8.3826 14.6508C5.14803 13.2069 1.38673 14.9066 0.294348 18.3073C-0.798035 21.7081 1.25535 25.3179 4.71254 26.0718L17.9501 28.9597L8.77674 39.3242C6.41802 41.9882 6.85594 46.1306 9.71585 48.2325C12.577 50.3344 16.6071 49.4747 18.3856 46.3839L25.1929 34.5472L32.1073 46.5709C33.8845 49.6617 37.9159 50.5214 40.777 48.4194C43.6381 46.3175 44.0748 42.1764 41.7161 39.5111L32.6851 29.3077L46.1319 26.3744C49.589 25.6204 51.6424 22.0106 50.5501 18.6099Z" fill="var(--fill-0, #21AADB)"/>
</svg>
