<svg preserveAspectRatio="none" width="100%" height="100%" overflow="visible" style="display: block;" viewBox="0 0 42.3703 42.3703" fill="none" xmlns="http://www.w3.org/2000/svg">
<path id="Primary" d="M26.9379 20.0409C24.8376 19.0567 23.1739 17.2343 22.2445 15.1086C20.7338 11.6547 21.5284 7.83159 19.3565 4.64027C17.398 1.76063 14.0762 0 10.5943 0C7.66847 0 5.02059 1.18639 3.10277 3.10287C1.18635 5.02075 0 7.66872 0 10.5947C0 14.0766 1.76057 17.3985 4.64011 19.3571C7.83273 21.5291 11.6543 20.7345 15.1081 22.2452C17.2337 23.1747 19.056 24.8384 20.0402 26.9388C21.6744 30.4236 20.7857 34.4348 22.9942 37.702C24.9499 40.5971 28.2815 42.3717 31.776 42.3703C34.7019 42.3703 37.3497 41.1839 39.2676 39.2675C41.1854 37.3496 42.3703 34.7016 42.3703 31.7756C42.3703 28.2811 40.5971 24.9493 37.7021 22.9935C34.4337 20.785 30.424 21.6738 26.9393 20.0395L26.9379 20.0409Z" fill="var(--fill-0, #ECA72B)"/>
</svg>
