<svg width="31" height="28" viewBox="0 0 31 28" fill="none" xmlns="http://www.w3.org/2000/svg">
<path d="M15.2686 11.7178C15.8534 11.7178 16.3834 11.8534 16.8721 12.123C17.3968 12.4125 17.8598 12.7933 18.2637 13.2705L18.2734 13.2812C18.834 13.9219 19.3297 14.6128 19.7607 15.3545C20.2494 16.1955 20.8234 16.98 21.4814 17.7061L21.4854 17.7109C22.2304 18.5199 22.9815 19.3396 23.7373 20.1699C24.3533 20.8468 24.6504 21.613 24.6504 22.5059C24.6504 23.3046 24.398 23.9717 23.8887 24.5479C23.396 25.105 22.8217 25.3632 22.1133 25.3633C21.0096 25.3633 19.9166 25.2707 18.834 25.0869C17.6566 24.887 16.4675 24.7871 15.2686 24.7871C14.0698 24.7871 12.8813 24.887 11.7041 25.0869C10.6215 25.2707 9.52846 25.3633 8.4248 25.3633C7.71639 25.3632 7.14205 25.105 6.64941 24.5479C6.14005 23.9717 5.8877 23.3046 5.8877 22.5059C5.88773 21.613 6.18475 20.8468 6.80078 20.1699C7.55657 19.3396 8.30766 18.5199 9.05273 17.7109L9.05176 17.71C9.7124 17.003 10.2842 16.2328 10.7637 15.3994C11.1802 14.6756 11.6766 13.9946 12.2549 13.3564L12.2744 13.335C12.682 12.8532 13.1516 12.4576 13.6855 12.1445C14.1714 11.8597 14.6936 11.7178 15.2686 11.7178ZM5.6748 7.87988C6.35013 7.87991 6.8887 8.10355 7.34277 8.55762C7.79672 9.01167 8.01953 9.55031 8.01953 10.2256C8.01946 10.9006 7.79654 11.4386 7.34277 11.8926C6.8887 12.3466 6.35013 12.5703 5.6748 12.5703C4.99941 12.5703 4.46094 12.3467 4.00684 11.8926C3.55298 11.4386 3.32918 10.9007 3.3291 10.2256C3.3291 9.55025 3.5528 9.0117 4.00684 8.55762C4.46094 8.10352 4.99941 7.87988 5.6748 7.87988ZM24.8633 7.87988C25.5387 7.87988 26.0771 8.10352 26.5312 8.55762C26.9853 9.01169 27.209 9.55026 27.209 10.2256C27.2089 10.9007 26.9851 11.4386 26.5312 11.8926C26.0771 12.3467 25.5387 12.5703 24.8633 12.5703C24.1879 12.5703 23.6494 12.3467 23.1953 11.8926C22.7415 11.4386 22.5186 10.9006 22.5186 10.2256C22.5186 9.5503 22.7413 9.01168 23.1953 8.55762C23.6494 8.10353 24.1879 7.8799 24.8633 7.87988ZM11.4316 2.7627C12.1067 2.76277 12.6447 2.98657 13.0986 3.44043C13.5527 3.89453 13.7764 4.43301 13.7764 5.1084C13.7763 5.78373 13.5527 6.3223 13.0986 6.77637C12.6447 7.23014 12.1067 7.45305 11.4316 7.45312C10.7564 7.45312 10.2177 7.2303 9.76367 6.77637C9.3096 6.3223 9.08597 5.78373 9.08594 5.1084C9.08594 4.43301 9.30957 3.89453 9.76367 3.44043C10.2177 2.98641 10.7563 2.7627 11.4316 2.7627ZM19.1064 2.7627C19.7818 2.7627 20.3203 2.98639 20.7744 3.44043C21.2285 3.89453 21.4521 4.43301 21.4521 5.1084C21.4521 5.78373 21.2285 6.3223 20.7744 6.77637C20.3204 7.23032 19.7817 7.45312 19.1064 7.45312C18.4314 7.45306 17.8934 7.23013 17.4395 6.77637C16.9854 6.32229 16.7617 5.78373 16.7617 5.1084C16.7617 4.43301 16.9854 3.89453 17.4395 3.44043C17.8934 2.98658 18.4313 2.76276 19.1064 2.7627Z" stroke="white" stroke-width="1.70566"/>
</svg>
