<svg width="17" height="21" viewBox="0 0 17 21" fill="none" xmlns="http://www.w3.org/2000/svg">
<path d="M5.47543 2.02248C5.00958 2.11839 4.6753 2.52851 4.6753 3.00413V7.03044C4.6753 7.03092 4.67574 7.03127 4.6762 7.03118C4.67667 7.03108 4.67711 7.03144 4.67711 7.03191V14.0471C4.67711 14.0702 4.67728 14.0942 4.67747 14.1189C4.68126 14.6311 4.68747 15.4708 3.17375 15.5504C1.58816 15.6339 0.00256477 16.7179 3.10812e-06 18.0528C-4.60801e-07 18.0546 0.00134397 18.0562 0.00317821 18.0565C0.00512675 18.0569 0.00650165 18.0586 0.00634721 18.0606C0.00213884 18.1143 0 18.1684 0 18.223C0 19.5146 1.19658 20.5616 2.67263 20.5616C3.12543 20.5616 3.55193 20.4631 3.92565 20.2892C4.9006 19.9739 5.84639 19.1609 5.84639 17.1373V7.19872C5.84639 6.96091 6.01353 6.75585 6.24645 6.70789L14.2635 5.05733C14.5743 4.99333 14.8656 5.23077 14.8656 5.54815V11.959C14.8656 11.9821 14.8658 12.0061 14.866 12.0309C14.8698 12.5431 14.876 13.3827 13.3623 13.4624C11.7767 13.5458 10.1911 14.6299 10.1885 15.9648C10.1885 15.9666 10.1899 15.9682 10.1917 15.9685C10.1937 15.9688 10.195 15.9706 10.1949 15.9726C10.1907 16.0262 10.1885 16.0804 10.1885 16.135C10.1885 17.4266 11.3851 18.4736 12.8612 18.4736C13.314 18.4736 13.7405 18.375 14.1142 18.2012C15.0891 17.8859 16.0349 17.0729 16.0349 15.0493V4.3592C16.0349 4.35895 16.0352 4.3592 16.0349 4.3592C16.0347 4.3592 16.034 4.35853 16.034 4.35828V0.668397C16.034 0.245217 15.6456 -0.071371 15.2311 0.0139645L5.47543 2.02248Z" fill="white"/>
</svg>
