<svg width="28" height="28" viewBox="0 0 28 28" fill="none" xmlns="http://www.w3.org/2000/svg">
<g clip-path="url(#clip0_518_16944)">
<rect width="27.4154" height="27.4154" rx="13.7077" fill="white" fill-opacity="0.14" style="mix-blend-mode:luminosity"/>
<path d="M27.4154 13.7077C27.4154 21.2783 21.2783 27.4154 13.7077 27.4154C6.13715 27.4154 0 21.2783 0 13.7077C0 6.13715 6.13715 0 13.7077 0C21.2783 0 27.4154 6.13715 27.4154 13.7077ZM1.88048 13.7077C1.88048 20.2397 7.17571 25.5349 13.7077 25.5349C20.2397 25.5349 25.5349 20.2397 25.5349 13.7077C25.5349 7.17571 20.2397 1.88048 13.7077 1.88048C7.17571 1.88048 1.88048 7.17571 1.88048 13.7077Z" fill="#EDEDED" fill-opacity="0.12" style="mix-blend-mode:luminosity"/>
<path d="M12.8604 0.968389C12.8259 0.450252 13.2183 -0.0011011 13.7376 2.78592e-05C15.9155 0.00476283 18.0659 0.528538 20.0081 1.53371C21.9504 2.53888 23.6198 3.99195 24.8814 5.76726C25.1822 6.19055 25.0403 6.77153 24.5974 7.04261V7.04261C24.1545 7.3137 23.5786 7.1718 23.2732 6.75182C22.1939 5.2676 20.7812 4.05122 19.1438 3.20379C17.5064 2.35637 15.6975 1.9055 13.8625 1.88149C13.3433 1.8747 12.8949 1.48653 12.8604 0.968389V0.968389Z" fill="white"/>
<path d="M10.6815 19.2257H12.2075C12.7898 19.2257 13.0977 18.9179 13.0977 18.3288V9.21271C13.0977 8.60362 12.7898 8.32251 12.2075 8.32251H10.6815C10.0991 8.32251 9.79126 8.6304 9.79126 9.21271V18.3288C9.79126 18.9179 10.0991 19.2257 10.6815 19.2257ZM15.5474 19.2257H17.0668C17.6558 19.2257 17.957 18.9179 17.957 18.3288V9.21271C17.957 8.60362 17.6558 8.32251 17.0668 8.32251H15.5474C14.9584 8.32251 14.6505 8.6304 14.6505 9.21271V18.3288C14.6505 18.9179 14.9584 19.2257 15.5474 19.2257Z" fill="white"/>
</g>
<defs>
<clipPath id="clip0_518_16944">
<rect width="27.4154" height="27.4154" rx="13.7077" fill="white"/>
</clipPath>
</defs>
</svg>
