<svg width="26" height="26" viewBox="0 0 26 26" fill="none" xmlns="http://www.w3.org/2000/svg">
<path d="M4.55397 22.0966L11.5861 15.0645C12.0083 14.6423 12.2194 14.4312 12.4628 14.3521C12.6769 14.2826 12.9075 14.2826 13.1216 14.3521C13.365 14.4312 13.5761 14.6423 13.9983 15.0645L20.9836 22.0497M14.9243 15.9905L17.9824 12.9324C18.4045 12.5102 18.6156 12.2991 18.859 12.22C19.0731 12.1505 19.3038 12.1505 19.5179 12.22C19.7613 12.2991 19.9724 12.5102 20.3945 12.9324L23.4526 15.9905M10.6601 9.59422C10.6601 10.7717 9.70558 11.7263 8.52806 11.7263C7.35055 11.7263 6.39599 10.7717 6.39599 9.59422C6.39599 8.41671 7.35055 7.46215 8.52806 7.46215C9.70558 7.46215 10.6601 8.41671 10.6601 9.59422ZM7.24882 22.3867H18.3356C20.1267 22.3867 21.0223 22.3867 21.7064 22.0381C22.3082 21.7315 22.7974 21.2422 23.104 20.6405C23.4526 19.9564 23.4526 19.0608 23.4526 17.2697V8.31498C23.4526 6.52387 23.4526 5.62831 23.104 4.9442C22.7974 4.34243 22.3082 3.85319 21.7064 3.54657C21.0223 3.198 20.1267 3.198 18.3356 3.198H7.24882C5.45771 3.198 4.56215 3.198 3.87804 3.54657C3.27627 3.85319 2.78702 4.34243 2.48041 4.9442C2.13184 5.62831 2.13184 6.52387 2.13184 8.31498V17.2697C2.13184 19.0608 2.13184 19.9564 2.48041 20.6405C2.78702 21.2422 3.27627 21.7315 3.87804 22.0381C4.56215 22.3867 5.45771 22.3867 7.24882 22.3867Z" stroke="white" stroke-width="2.13208" stroke-linecap="round" stroke-linejoin="round"/>
</svg>
